<mxfile host="app.diagrams.net" modified="2024-05-10T11:02:13.241Z" agent="Mozilla/5.0 (Windows NT 10.0; Win64; x64) AppleWebKit/537.36 (KHTML, like Gecko) Chrome/123.0.0.0 Safari/537.36" etag="WeCFVx8szWNyqolzn3vn" version="24.3.1" type="github">
  <diagram name="第 1 页" id="n4IKZgw7_F0qrOavC89N">
    <mxGraphModel dx="2401" dy="819" grid="1" gridSize="10" guides="1" tooltips="1" connect="1" arrows="1" fold="1" page="1" pageScale="1" pageWidth="827" pageHeight="1169" math="0" shadow="0">
      <root>
        <mxCell id="0" />
        <mxCell id="1" parent="0" />
        <mxCell id="6Za8_0p4STx7k7P0RHbG-22" style="rounded=1;sketch=1;hachureGap=4;jiggle=2;curveFitting=1;orthogonalLoop=1;jettySize=auto;html=1;exitX=1;exitY=0.5;exitDx=0;exitDy=0;entryX=0;entryY=0.5;entryDx=0;entryDy=0;fontFamily=Architects Daughter;fontSource=https%3A%2F%2Ffonts.googleapis.com%2Fcss%3Ffamily%3DArchitects%2BDaughter;labelBackgroundColor=none;strokeColor=#457B9D;fontColor=default;" parent="1" source="PAuPJ2dJaE1Ry57bKf5C-1" target="6Za8_0p4STx7k7P0RHbG-20" edge="1">
          <mxGeometry relative="1" as="geometry" />
        </mxCell>
        <mxCell id="6Za8_0p4STx7k7P0RHbG-23" style="rounded=1;sketch=1;hachureGap=4;jiggle=2;curveFitting=1;orthogonalLoop=1;jettySize=auto;html=1;exitX=1;exitY=0.5;exitDx=0;exitDy=0;entryX=0;entryY=0.5;entryDx=0;entryDy=0;fontFamily=Architects Daughter;fontSource=https%3A%2F%2Ffonts.googleapis.com%2Fcss%3Ffamily%3DArchitects%2BDaughter;labelBackgroundColor=none;strokeColor=#457B9D;fontColor=default;" parent="1" source="PAuPJ2dJaE1Ry57bKf5C-1" target="6Za8_0p4STx7k7P0RHbG-21" edge="1">
          <mxGeometry relative="1" as="geometry" />
        </mxCell>
        <mxCell id="PAuPJ2dJaE1Ry57bKf5C-1" value="BeanFactory" style="rounded=1;whiteSpace=wrap;html=1;sketch=1;hachureGap=4;jiggle=2;curveFitting=1;fontFamily=Architects Daughter;fontSource=https%3A%2F%2Ffonts.googleapis.com%2Fcss%3Ffamily%3DArchitects%2BDaughter;fontStyle=1;fontSize=16;labelBackgroundColor=none;fillColor=#A8DADC;strokeColor=#457B9D;fontColor=#1D3557;" parent="1" vertex="1">
          <mxGeometry x="-750" y="210" width="130" height="40" as="geometry" />
        </mxCell>
        <mxCell id="PAuPJ2dJaE1Ry57bKf5C-2" value="" style="endArrow=classic;html=1;rounded=1;sketch=1;hachureGap=4;jiggle=2;curveFitting=1;fontFamily=Architects Daughter;fontSource=https%3A%2F%2Ffonts.googleapis.com%2Fcss%3Ffamily%3DArchitects%2BDaughter;entryX=0;entryY=0.5;entryDx=0;entryDy=0;exitX=1;exitY=0.5;exitDx=0;exitDy=0;labelBackgroundColor=none;strokeColor=#457B9D;fontColor=default;" parent="1" source="6Za8_0p4STx7k7P0RHbG-20" target="5GHv3-1iCE6iBPc1eZc9-1" edge="1">
          <mxGeometry width="50" height="50" relative="1" as="geometry">
            <mxPoint x="-340" y="340" as="sourcePoint" />
            <mxPoint x="-190" y="260" as="targetPoint" />
          </mxGeometry>
        </mxCell>
        <mxCell id="PAuPJ2dJaE1Ry57bKf5C-3" value="Bean" style="rounded=1;whiteSpace=wrap;html=1;sketch=1;hachureGap=4;jiggle=2;curveFitting=1;fontFamily=Architects Daughter;fontSource=https%3A%2F%2Ffonts.googleapis.com%2Fcss%3Ffamily%3DArchitects%2BDaughter;fontStyle=1;fontSize=17;labelBackgroundColor=none;fillColor=#A8DADC;strokeColor=#457B9D;fontColor=#1D3557;" parent="1" vertex="1">
          <mxGeometry x="-480" y="590" width="120" height="40" as="geometry" />
        </mxCell>
        <mxCell id="PAuPJ2dJaE1Ry57bKf5C-7" value="容器管理的基本对象" style="rounded=1;whiteSpace=wrap;html=1;sketch=1;hachureGap=4;jiggle=2;curveFitting=1;fontFamily=Architects Daughter;fontSource=https%3A%2F%2Ffonts.googleapis.com%2Fcss%3Ffamily%3DArchitects%2BDaughter;fillColor=#A8DADC;strokeColor=#457B9D;labelBackgroundColor=none;fontColor=#1D3557;" parent="1" vertex="1">
          <mxGeometry x="-480" y="650" width="120" height="60" as="geometry" />
        </mxCell>
        <mxCell id="PAuPJ2dJaE1Ry57bKf5C-8" value="容器管理的基本对象" style="rounded=1;whiteSpace=wrap;html=1;sketch=1;hachureGap=4;jiggle=2;curveFitting=1;fontFamily=Architects Daughter;fontSource=https%3A%2F%2Ffonts.googleapis.com%2Fcss%3Ffamily%3DArchitects%2BDaughter;fillColor=#A8DADC;strokeColor=#457B9D;labelBackgroundColor=none;fontColor=#1D3557;" parent="1" vertex="1">
          <mxGeometry x="-750" y="280" width="120" height="60" as="geometry" />
        </mxCell>
        <mxCell id="5GHv3-1iCE6iBPc1eZc9-2" style="rounded=1;sketch=1;hachureGap=4;jiggle=2;curveFitting=1;orthogonalLoop=1;jettySize=auto;html=1;fontFamily=Architects Daughter;fontSource=https%3A%2F%2Ffonts.googleapis.com%2Fcss%3Ffamily%3DArchitects%2BDaughter;entryX=0;entryY=0.5;entryDx=0;entryDy=0;exitX=1;exitY=0.5;exitDx=0;exitDy=0;labelBackgroundColor=none;strokeColor=#457B9D;fontColor=default;" parent="1" source="6Za8_0p4STx7k7P0RHbG-4" target="5GHv3-1iCE6iBPc1eZc9-3" edge="1">
          <mxGeometry relative="1" as="geometry">
            <mxPoint x="60" y="230" as="targetPoint" />
            <mxPoint x="320" y="230" as="sourcePoint" />
          </mxGeometry>
        </mxCell>
        <mxCell id="5GHv3-1iCE6iBPc1eZc9-5" style="edgeStyle=none;rounded=1;sketch=1;hachureGap=4;jiggle=2;curveFitting=1;orthogonalLoop=1;jettySize=auto;html=1;exitX=1;exitY=0.5;exitDx=0;exitDy=0;fontFamily=Architects Daughter;fontSource=https%3A%2F%2Ffonts.googleapis.com%2Fcss%3Ffamily%3DArchitects%2BDaughter;entryX=0;entryY=0.5;entryDx=0;entryDy=0;labelBackgroundColor=none;strokeColor=#457B9D;fontColor=default;" parent="1" source="6Za8_0p4STx7k7P0RHbG-4" target="5GHv3-1iCE6iBPc1eZc9-6" edge="1">
          <mxGeometry relative="1" as="geometry">
            <mxPoint x="50" y="320" as="targetPoint" />
          </mxGeometry>
        </mxCell>
        <mxCell id="5GHv3-1iCE6iBPc1eZc9-7" style="edgeStyle=none;rounded=1;sketch=1;hachureGap=4;jiggle=2;curveFitting=1;orthogonalLoop=1;jettySize=auto;html=1;exitX=1;exitY=0.5;exitDx=0;exitDy=0;fontFamily=Architects Daughter;fontSource=https%3A%2F%2Ffonts.googleapis.com%2Fcss%3Ffamily%3DArchitects%2BDaughter;entryX=0;entryY=0.5;entryDx=0;entryDy=0;labelBackgroundColor=none;strokeColor=#457B9D;fontColor=default;" parent="1" source="6Za8_0p4STx7k7P0RHbG-4" target="5GHv3-1iCE6iBPc1eZc9-8" edge="1">
          <mxGeometry relative="1" as="geometry">
            <mxPoint x="60" y="390" as="targetPoint" />
          </mxGeometry>
        </mxCell>
        <mxCell id="5GHv3-1iCE6iBPc1eZc9-10" style="edgeStyle=none;rounded=1;sketch=1;hachureGap=4;jiggle=2;curveFitting=1;orthogonalLoop=1;jettySize=auto;html=1;exitX=1;exitY=0.5;exitDx=0;exitDy=0;fontFamily=Architects Daughter;fontSource=https%3A%2F%2Ffonts.googleapis.com%2Fcss%3Ffamily%3DArchitects%2BDaughter;entryX=0;entryY=0.5;entryDx=0;entryDy=0;labelBackgroundColor=none;strokeColor=#457B9D;fontColor=default;" parent="1" source="6Za8_0p4STx7k7P0RHbG-4" target="5GHv3-1iCE6iBPc1eZc9-9" edge="1">
          <mxGeometry relative="1" as="geometry">
            <mxPoint x="40" y="490" as="targetPoint" />
          </mxGeometry>
        </mxCell>
        <mxCell id="6Za8_0p4STx7k7P0RHbG-3" style="edgeStyle=orthogonalEdgeStyle;rounded=1;sketch=1;hachureGap=4;jiggle=2;curveFitting=1;orthogonalLoop=1;jettySize=auto;html=1;exitX=0.5;exitY=1;exitDx=0;exitDy=0;entryX=0.5;entryY=0;entryDx=0;entryDy=0;fontFamily=Architects Daughter;fontSource=https%3A%2F%2Ffonts.googleapis.com%2Fcss%3Ffamily%3DArchitects%2BDaughter;labelBackgroundColor=none;strokeColor=#457B9D;fontColor=default;" parent="1" source="5GHv3-1iCE6iBPc1eZc9-1" target="5GHv3-1iCE6iBPc1eZc9-11" edge="1">
          <mxGeometry relative="1" as="geometry" />
        </mxCell>
        <mxCell id="5GHv3-1iCE6iBPc1eZc9-1" value="ApplicationContext" style="rounded=1;whiteSpace=wrap;html=1;sketch=1;hachureGap=4;jiggle=2;curveFitting=1;fontFamily=Architects Daughter;fontSource=https%3A%2F%2Ffonts.googleapis.com%2Fcss%3Ffamily%3DArchitects%2BDaughter;fontStyle=1;fontSize=16;labelBackgroundColor=none;fillColor=#A8DADC;strokeColor=#457B9D;fontColor=#1D3557;" parent="1" vertex="1">
          <mxGeometry x="-222" y="210" width="191" height="40" as="geometry" />
        </mxCell>
        <mxCell id="5GHv3-1iCE6iBPc1eZc9-3" value="ClassPathXmlApplicationContext" style="rounded=1;whiteSpace=wrap;html=1;sketch=1;hachureGap=4;jiggle=2;curveFitting=1;fontFamily=Architects Daughter;fontSource=https%3A%2F%2Ffonts.googleapis.com%2Fcss%3Ffamily%3DArchitects%2BDaughter;fontStyle=1;fontSize=16;labelBackgroundColor=none;fillColor=#A8DADC;strokeColor=#457B9D;fontColor=#1D3557;" parent="1" vertex="1">
          <mxGeometry x="570" y="430" width="330" height="40" as="geometry" />
        </mxCell>
        <mxCell id="5GHv3-1iCE6iBPc1eZc9-6" value="AnnotationConfigApplicationContext" style="rounded=1;whiteSpace=wrap;html=1;sketch=1;hachureGap=4;jiggle=2;curveFitting=1;fontFamily=Architects Daughter;fontSource=https%3A%2F%2Ffonts.googleapis.com%2Fcss%3Ffamily%3DArchitects%2BDaughter;fontStyle=1;fontSize=16;labelBackgroundColor=none;fillColor=#A8DADC;strokeColor=#457B9D;fontColor=#1D3557;" parent="1" vertex="1">
          <mxGeometry x="570" y="300" width="330" height="40" as="geometry" />
        </mxCell>
        <mxCell id="5GHv3-1iCE6iBPc1eZc9-8" value="XmlWebApplicationContext" style="rounded=1;whiteSpace=wrap;html=1;sketch=1;hachureGap=4;jiggle=2;curveFitting=1;fontFamily=Architects Daughter;fontSource=https%3A%2F%2Ffonts.googleapis.com%2Fcss%3Ffamily%3DArchitects%2BDaughter;fontStyle=1;fontSize=16;labelBackgroundColor=none;fillColor=#A8DADC;strokeColor=#457B9D;fontColor=#1D3557;" parent="1" vertex="1">
          <mxGeometry x="570" y="240" width="330" height="40" as="geometry" />
        </mxCell>
        <mxCell id="5GHv3-1iCE6iBPc1eZc9-9" value="AnnotationConfigWebApplicationContext" style="rounded=1;whiteSpace=wrap;html=1;sketch=1;hachureGap=4;jiggle=2;curveFitting=1;fontFamily=Architects Daughter;fontSource=https%3A%2F%2Ffonts.googleapis.com%2Fcss%3Ffamily%3DArchitects%2BDaughter;fontStyle=1;fontSize=16;labelBackgroundColor=none;fillColor=#A8DADC;strokeColor=#457B9D;fontColor=#1D3557;" parent="1" vertex="1">
          <mxGeometry x="570" y="360" width="330" height="40" as="geometry" />
        </mxCell>
        <mxCell id="6Za8_0p4STx7k7P0RHbG-9" style="edgeStyle=orthogonalEdgeStyle;rounded=1;sketch=1;hachureGap=4;jiggle=2;curveFitting=1;orthogonalLoop=1;jettySize=auto;html=1;exitX=1;exitY=0.5;exitDx=0;exitDy=0;entryX=0;entryY=0.5;entryDx=0;entryDy=0;fontFamily=Architects Daughter;fontSource=https%3A%2F%2Ffonts.googleapis.com%2Fcss%3Ffamily%3DArchitects%2BDaughter;dashed=1;labelBackgroundColor=none;strokeColor=#457B9D;fontColor=default;" parent="1" source="5GHv3-1iCE6iBPc1eZc9-11" target="6Za8_0p4STx7k7P0RHbG-4" edge="1">
          <mxGeometry relative="1" as="geometry" />
        </mxCell>
        <mxCell id="5GHv3-1iCE6iBPc1eZc9-11" value="ConfigurableApplicationContext" style="rounded=1;whiteSpace=wrap;html=1;sketch=1;hachureGap=4;jiggle=2;curveFitting=1;fontFamily=Architects Daughter;fontSource=https%3A%2F%2Ffonts.googleapis.com%2Fcss%3Ffamily%3DArchitects%2BDaughter;fontStyle=1;fontSize=16;labelBackgroundColor=none;fillColor=#A8DADC;strokeColor=#457B9D;fontColor=#1D3557;" parent="1" vertex="1">
          <mxGeometry x="-251" y="310" width="249" height="40" as="geometry" />
        </mxCell>
        <mxCell id="6Za8_0p4STx7k7P0RHbG-1" value="Interface" style="shape=step;perimeter=stepPerimeter;whiteSpace=wrap;html=1;fixedSize=1;sketch=1;hachureGap=4;jiggle=2;curveFitting=1;fontFamily=Architects Daughter;fontSource=https%3A%2F%2Ffonts.googleapis.com%2Fcss%3Ffamily%3DArchitects%2BDaughter;fontSize=16;fontStyle=1;labelBackgroundColor=none;fillColor=#A8DADC;rounded=1;strokeColor=#457B9D;fontColor=#1D3557;" parent="1" vertex="1">
          <mxGeometry x="-750" y="120" width="750" height="40" as="geometry" />
        </mxCell>
        <mxCell id="6Za8_0p4STx7k7P0RHbG-2" value="implementsDefaultClass" style="shape=step;perimeter=stepPerimeter;whiteSpace=wrap;html=1;fixedSize=1;sketch=1;hachureGap=4;jiggle=2;curveFitting=1;fontFamily=Architects Daughter;fontSource=https%3A%2F%2Ffonts.googleapis.com%2Fcss%3Ffamily%3DArchitects%2BDaughter;fontSize=16;fontStyle=1;labelBackgroundColor=none;fillColor=#A8DADC;rounded=1;strokeColor=#457B9D;fontColor=#1D3557;" parent="1" vertex="1">
          <mxGeometry x="120" y="120" width="790" height="40" as="geometry" />
        </mxCell>
        <mxCell id="6Za8_0p4STx7k7P0RHbG-4" value="AbstractApplicationContext" style="rounded=1;whiteSpace=wrap;html=1;sketch=1;hachureGap=4;jiggle=2;curveFitting=1;fontFamily=Architects Daughter;fontSource=https%3A%2F%2Ffonts.googleapis.com%2Fcss%3Ffamily%3DArchitects%2BDaughter;fontStyle=1;fontSize=16;labelBackgroundColor=none;fillColor=#A8DADC;strokeColor=#457B9D;fontColor=#1D3557;" parent="1" vertex="1">
          <mxGeometry x="120" y="310" width="330" height="40" as="geometry" />
        </mxCell>
        <mxCell id="6Za8_0p4STx7k7P0RHbG-10" style="edgeStyle=orthogonalEdgeStyle;rounded=1;sketch=1;hachureGap=4;jiggle=2;curveFitting=1;orthogonalLoop=1;jettySize=auto;html=1;exitX=0.5;exitY=1;exitDx=0;exitDy=0;entryX=0.5;entryY=0;entryDx=0;entryDy=0;fontFamily=Architects Daughter;fontSource=https%3A%2F%2Ffonts.googleapis.com%2Fcss%3Ffamily%3DArchitects%2BDaughter;dashed=1;labelBackgroundColor=none;strokeColor=#457B9D;fontColor=default;" parent="1" source="6Za8_0p4STx7k7P0RHbG-8" target="6Za8_0p4STx7k7P0RHbG-4" edge="1">
          <mxGeometry relative="1" as="geometry" />
        </mxCell>
        <mxCell id="6Za8_0p4STx7k7P0RHbG-8" value="DefaultResourceLoader" style="rounded=1;whiteSpace=wrap;html=1;sketch=1;hachureGap=4;jiggle=2;curveFitting=1;fontFamily=Architects Daughter;fontSource=https%3A%2F%2Ffonts.googleapis.com%2Fcss%3Ffamily%3DArchitects%2BDaughter;fontStyle=1;fontSize=16;labelBackgroundColor=none;fillColor=#A8DADC;strokeColor=#457B9D;fontColor=#1D3557;" parent="1" vertex="1">
          <mxGeometry x="170" y="210" width="230" height="40" as="geometry" />
        </mxCell>
        <mxCell id="6Za8_0p4STx7k7P0RHbG-11" value="应用程序提供配置的中央接口" style="rounded=1;whiteSpace=wrap;html=1;sketch=1;hachureGap=4;jiggle=2;curveFitting=1;fontFamily=Architects Daughter;fontSource=https%3A%2F%2Ffonts.googleapis.com%2Fcss%3Ffamily%3DArchitects%2BDaughter;fillColor=#A8DADC;strokeColor=#457B9D;labelBackgroundColor=none;fontColor=#1D3557;" parent="1" vertex="1">
          <mxGeometry y="200" width="120" height="60" as="geometry" />
        </mxCell>
        <mxCell id="6Za8_0p4STx7k7P0RHbG-14" value="DefaultListableBeanFactory" style="rounded=1;whiteSpace=wrap;html=1;sketch=1;hachureGap=4;jiggle=2;curveFitting=1;fontFamily=Architects Daughter;fontSource=https%3A%2F%2Ffonts.googleapis.com%2Fcss%3Ffamily%3DArchitects%2BDaughter;fontStyle=1;fontSize=16;labelBackgroundColor=none;fillColor=#A8DADC;strokeColor=#457B9D;fontColor=#1D3557;" parent="1" vertex="1">
          <mxGeometry x="140" y="470" width="249" height="40" as="geometry" />
        </mxCell>
        <mxCell id="6Za8_0p4STx7k7P0RHbG-15" value="默认的" style="rounded=1;whiteSpace=wrap;html=1;sketch=1;hachureGap=4;jiggle=2;curveFitting=1;fontFamily=Architects Daughter;fontSource=https%3A%2F%2Ffonts.googleapis.com%2Fcss%3Ffamily%3DArchitects%2BDaughter;fillColor=#A8DADC;strokeColor=#457B9D;labelBackgroundColor=none;fontColor=#1D3557;" parent="1" vertex="1">
          <mxGeometry x="180" y="530" width="120" height="60" as="geometry" />
        </mxCell>
        <mxCell id="6Za8_0p4STx7k7P0RHbG-18" style="edgeStyle=orthogonalEdgeStyle;rounded=1;sketch=1;hachureGap=4;jiggle=2;curveFitting=1;orthogonalLoop=1;jettySize=auto;html=1;exitX=1;exitY=0.5;exitDx=0;exitDy=0;entryX=0;entryY=0.5;entryDx=0;entryDy=0;fontFamily=Architects Daughter;fontSource=https%3A%2F%2Ffonts.googleapis.com%2Fcss%3Ffamily%3DArchitects%2BDaughter;dashed=1;labelBackgroundColor=none;strokeColor=#457B9D;fontColor=default;" parent="1" source="6Za8_0p4STx7k7P0RHbG-16" target="6Za8_0p4STx7k7P0RHbG-14" edge="1">
          <mxGeometry relative="1" as="geometry" />
        </mxCell>
        <mxCell id="6Za8_0p4STx7k7P0RHbG-16" value="ConfigurableListableBeanFactory" style="rounded=1;whiteSpace=wrap;html=1;sketch=1;hachureGap=4;jiggle=2;curveFitting=1;fontFamily=Architects Daughter;fontSource=https%3A%2F%2Ffonts.googleapis.com%2Fcss%3Ffamily%3DArchitects%2BDaughter;fontStyle=1;fontSize=16;labelBackgroundColor=none;fillColor=#A8DADC;strokeColor=#457B9D;fontColor=#1D3557;" parent="1" vertex="1">
          <mxGeometry x="-249" y="470" width="249" height="40" as="geometry" />
        </mxCell>
        <mxCell id="6Za8_0p4STx7k7P0RHbG-19" style="rounded=1;sketch=1;hachureGap=4;jiggle=2;curveFitting=1;orthogonalLoop=1;jettySize=auto;html=1;exitX=1;exitY=0.5;exitDx=0;exitDy=0;entryX=0;entryY=0.5;entryDx=0;entryDy=0;fontFamily=Architects Daughter;fontSource=https%3A%2F%2Ffonts.googleapis.com%2Fcss%3Ffamily%3DArchitects%2BDaughter;dashed=1;labelBackgroundColor=none;strokeColor=#457B9D;fontColor=default;" parent="1" source="6Za8_0p4STx7k7P0RHbG-17" target="6Za8_0p4STx7k7P0RHbG-14" edge="1">
          <mxGeometry relative="1" as="geometry" />
        </mxCell>
        <mxCell id="6Za8_0p4STx7k7P0RHbG-17" value="BeanDefinitionRegistry" style="rounded=1;whiteSpace=wrap;html=1;sketch=1;hachureGap=4;jiggle=2;curveFitting=1;fontFamily=Architects Daughter;fontSource=https%3A%2F%2Ffonts.googleapis.com%2Fcss%3Ffamily%3DArchitects%2BDaughter;fontStyle=1;fontSize=16;labelBackgroundColor=none;fillColor=#A8DADC;strokeColor=#457B9D;fontColor=#1D3557;" parent="1" vertex="1">
          <mxGeometry x="-251" y="560" width="249" height="40" as="geometry" />
        </mxCell>
        <mxCell id="6Za8_0p4STx7k7P0RHbG-20" value="ListableBeanFactory" style="rounded=1;whiteSpace=wrap;html=1;sketch=1;hachureGap=4;jiggle=2;curveFitting=1;fontFamily=Architects Daughter;fontSource=https%3A%2F%2Ffonts.googleapis.com%2Fcss%3Ffamily%3DArchitects%2BDaughter;fontStyle=1;fontSize=16;labelBackgroundColor=none;fillColor=#A8DADC;strokeColor=#457B9D;fontColor=#1D3557;" parent="1" vertex="1">
          <mxGeometry x="-530" y="210" width="180" height="40" as="geometry" />
        </mxCell>
        <mxCell id="6Za8_0p4STx7k7P0RHbG-21" value="HierarchicalBeanFactory" style="rounded=1;whiteSpace=wrap;html=1;sketch=1;hachureGap=4;jiggle=2;curveFitting=1;fontFamily=Architects Daughter;fontSource=https%3A%2F%2Ffonts.googleapis.com%2Fcss%3Ffamily%3DArchitects%2BDaughter;fontStyle=1;fontSize=16;labelBackgroundColor=none;fillColor=#A8DADC;strokeColor=#457B9D;fontColor=#1D3557;" parent="1" vertex="1">
          <mxGeometry x="-550" y="310" width="220" height="40" as="geometry" />
        </mxCell>
        <mxCell id="I6DsQjvCXqQjqbKMyJa3-1" value="DefaultSingletonBeanRegistry" style="rounded=1;whiteSpace=wrap;html=1;sketch=1;hachureGap=4;jiggle=2;curveFitting=1;fontFamily=Architects Daughter;fontSource=https%3A%2F%2Ffonts.googleapis.com%2Fcss%3Ffamily%3DArchitects%2BDaughter;fontStyle=1;fontSize=16;labelBackgroundColor=none;fillColor=#A8DADC;strokeColor=#457B9D;fontColor=#1D3557;" vertex="1" parent="1">
          <mxGeometry x="-249" y="710" width="249" height="40" as="geometry" />
        </mxCell>
        <mxCell id="I6DsQjvCXqQjqbKMyJa3-2" value="默认的单例Bean注册表" style="rounded=1;whiteSpace=wrap;html=1;sketch=1;hachureGap=4;jiggle=2;curveFitting=1;fontFamily=Architects Daughter;fontSource=https%3A%2F%2Ffonts.googleapis.com%2Fcss%3Ffamily%3DArchitects%2BDaughter;fillColor=#A8DADC;strokeColor=#457B9D;labelBackgroundColor=none;fontColor=#1D3557;" vertex="1" parent="1">
          <mxGeometry x="-200" y="770" width="150" height="50" as="geometry" />
        </mxCell>
        <mxCell id="I6DsQjvCXqQjqbKMyJa3-3" value="FactoryBeanRegistrySupport.factoryBeanObjectCache" style="rounded=1;whiteSpace=wrap;html=1;sketch=1;hachureGap=4;jiggle=2;curveFitting=1;fontFamily=Architects Daughter;fontSource=https%3A%2F%2Ffonts.googleapis.com%2Fcss%3Ffamily%3DArchitects%2BDaughter;fontStyle=1;fontSize=16;fillColor=#A8DADC;strokeColor=#457B9D;labelBackgroundColor=none;fontColor=#1D3557;" vertex="1" parent="1">
          <mxGeometry x="160.5" y="700" width="439.5" height="50" as="geometry" />
        </mxCell>
        <mxCell id="I6DsQjvCXqQjqbKMyJa3-4" value="单例Bean缓存" style="rounded=1;whiteSpace=wrap;html=1;sketch=1;hachureGap=4;jiggle=2;curveFitting=1;fontFamily=Architects Daughter;fontSource=https%3A%2F%2Ffonts.googleapis.com%2Fcss%3Ffamily%3DArchitects%2BDaughter;fillColor=#A8DADC;strokeColor=#457B9D;labelBackgroundColor=none;fontColor=#1D3557;" vertex="1" parent="1">
          <mxGeometry x="210" y="770" width="150" height="50" as="geometry" />
        </mxCell>
        <mxCell id="I6DsQjvCXqQjqbKMyJa3-5" value="factoryBeanInstanceCache" style="rounded=1;whiteSpace=wrap;html=1;sketch=1;hachureGap=4;jiggle=2;curveFitting=1;fontFamily=Architects Daughter;fontSource=https%3A%2F%2Ffonts.googleapis.com%2Fcss%3Ffamily%3DArchitects%2BDaughter;fontStyle=1;fontSize=16;fillColor=#A8DADC;strokeColor=#457B9D;labelBackgroundColor=none;fontColor=#1D3557;" vertex="1" parent="1">
          <mxGeometry x="160.5" y="870" width="439.5" height="50" as="geometry" />
        </mxCell>
        <mxCell id="I6DsQjvCXqQjqbKMyJa3-6" value="BeanWrapper缓存" style="rounded=1;whiteSpace=wrap;html=1;sketch=1;hachureGap=4;jiggle=2;curveFitting=1;fontFamily=Architects Daughter;fontSource=https%3A%2F%2Ffonts.googleapis.com%2Fcss%3Ffamily%3DArchitects%2BDaughter;fillColor=#A8DADC;strokeColor=#457B9D;labelBackgroundColor=none;fontColor=#1D3557;" vertex="1" parent="1">
          <mxGeometry x="210" y="940" width="150" height="50" as="geometry" />
        </mxCell>
        <mxCell id="I6DsQjvCXqQjqbKMyJa3-7" value="SimpleInstantiationStrategy" style="rounded=1;whiteSpace=wrap;html=1;sketch=1;hachureGap=4;jiggle=2;curveFitting=1;fontFamily=Architects Daughter;fontSource=https%3A%2F%2Ffonts.googleapis.com%2Fcss%3Ffamily%3DArchitects%2BDaughter;fontStyle=1;fontSize=16;labelBackgroundColor=none;fillColor=#A8DADC;strokeColor=#457B9D;fontColor=#1D3557;" vertex="1" parent="1">
          <mxGeometry x="440" y="540" width="249" height="40" as="geometry" />
        </mxCell>
        <mxCell id="I6DsQjvCXqQjqbKMyJa3-8" value="用于BeanFactory的简单对象实例化策略" style="rounded=1;whiteSpace=wrap;html=1;sketch=1;hachureGap=4;jiggle=2;curveFitting=1;fontFamily=Architects Daughter;fontSource=https%3A%2F%2Ffonts.googleapis.com%2Fcss%3Ffamily%3DArchitects%2BDaughter;fillColor=#A8DADC;strokeColor=#457B9D;labelBackgroundColor=none;fontColor=#1D3557;" vertex="1" parent="1">
          <mxGeometry x="489.5" y="600" width="150" height="50" as="geometry" />
        </mxCell>
        <mxCell id="I6DsQjvCXqQjqbKMyJa3-9" value="BeanFactory" style="shape=umlLifeline;perimeter=lifelinePerimeter;whiteSpace=wrap;html=1;container=1;dropTarget=0;collapsible=0;recursiveResize=0;outlineConnect=0;portConstraint=eastwest;newEdgeStyle={&quot;curved&quot;:0,&quot;rounded&quot;:0};sketch=1;hachureGap=4;jiggle=2;curveFitting=1;fontFamily=Architects Daughter;fontSource=https%3A%2F%2Ffonts.googleapis.com%2Fcss%3Ffamily%3DArchitects%2BDaughter;fillColor=#A8DADC;strokeColor=#457B9D;rounded=1;labelBackgroundColor=none;fontColor=#1D3557;fontSize=13;fontStyle=1" vertex="1" parent="1">
          <mxGeometry x="-506" y="1160" width="93" height="380" as="geometry" />
        </mxCell>
        <mxCell id="I6DsQjvCXqQjqbKMyJa3-14" value="" style="html=1;points=[[0,0,0,0,5],[0,1,0,0,-5],[1,0,0,0,5],[1,1,0,0,-5]];perimeter=orthogonalPerimeter;outlineConnect=0;targetShapes=umlLifeline;portConstraint=eastwest;newEdgeStyle={&quot;curved&quot;:0,&quot;rounded&quot;:0};sketch=1;hachureGap=4;jiggle=2;curveFitting=1;fontFamily=Architects Daughter;fontSource=https%3A%2F%2Ffonts.googleapis.com%2Fcss%3Ffamily%3DArchitects%2BDaughter;fillStyle=auto;shadow=0;glass=0;rounded=1;labelBackgroundColor=none;fillColor=#A8DADC;strokeColor=#457B9D;fontColor=#1D3557;fontSize=13;fontStyle=1" vertex="1" parent="I6DsQjvCXqQjqbKMyJa3-9">
          <mxGeometry x="37.5" y="80" width="18" height="80" as="geometry" />
        </mxCell>
        <mxCell id="I6DsQjvCXqQjqbKMyJa3-10" value="实例化 instantiation" style="rounded=1;whiteSpace=wrap;html=1;sketch=1;hachureGap=4;jiggle=2;curveFitting=1;fontFamily=Architects Daughter;fontSource=https%3A%2F%2Ffonts.googleapis.com%2Fcss%3Ffamily%3DArchitects%2BDaughter;fontStyle=1;fontSize=15;fillColor=#A8DADC;strokeColor=#457B9D;labelBackgroundColor=none;fontColor=#1D3557;" vertex="1" parent="1">
          <mxGeometry x="-513" y="1110" width="1123" height="30" as="geometry" />
        </mxCell>
        <mxCell id="I6DsQjvCXqQjqbKMyJa3-15" value="AbstractBeanFactory" style="shape=umlLifeline;perimeter=lifelinePerimeter;whiteSpace=wrap;html=1;container=1;dropTarget=0;collapsible=0;recursiveResize=0;outlineConnect=0;portConstraint=eastwest;newEdgeStyle={&quot;curved&quot;:0,&quot;rounded&quot;:0};sketch=1;hachureGap=4;jiggle=2;curveFitting=1;fontFamily=Architects Daughter;fontSource=https%3A%2F%2Ffonts.googleapis.com%2Fcss%3Ffamily%3DArchitects%2BDaughter;fillColor=#A8DADC;strokeColor=#457B9D;rounded=1;labelBackgroundColor=none;fontColor=#1D3557;fontSize=13;fontStyle=1" vertex="1" parent="1">
          <mxGeometry x="-290" y="1160" width="160" height="480" as="geometry" />
        </mxCell>
        <mxCell id="I6DsQjvCXqQjqbKMyJa3-16" value="" style="html=1;points=[[0,0,0,0,5],[0,1,0,0,-5],[1,0,0,0,5],[1,0.34,0,0,0]];perimeter=orthogonalPerimeter;outlineConnect=0;targetShapes=umlLifeline;portConstraint=eastwest;newEdgeStyle={&quot;curved&quot;:0,&quot;rounded&quot;:0};sketch=1;hachureGap=4;jiggle=2;curveFitting=1;fontFamily=Architects Daughter;fontSource=https%3A%2F%2Ffonts.googleapis.com%2Fcss%3Ffamily%3DArchitects%2BDaughter;fillStyle=auto;shadow=0;glass=0;rounded=1;arcSize=0;labelBackgroundColor=none;fillColor=#A8DADC;strokeColor=#457B9D;fontColor=#1D3557;fontSize=13;fontStyle=1" vertex="1" parent="I6DsQjvCXqQjqbKMyJa3-15">
          <mxGeometry x="71" y="80" width="15" height="360" as="geometry" />
        </mxCell>
        <mxCell id="I6DsQjvCXqQjqbKMyJa3-25" value="" style="html=1;points=[[0,0,0,0,5],[0,1,0,0,-5],[1,0,0,0,5],[1,1,0,0,-5]];perimeter=orthogonalPerimeter;outlineConnect=0;targetShapes=umlLifeline;portConstraint=eastwest;newEdgeStyle={&quot;curved&quot;:0,&quot;rounded&quot;:0};sketch=1;hachureGap=4;jiggle=2;curveFitting=1;fontFamily=Architects Daughter;fontSource=https%3A%2F%2Ffonts.googleapis.com%2Fcss%3Ffamily%3DArchitects%2BDaughter;rounded=1;labelBackgroundColor=none;fillColor=#A8DADC;strokeColor=#457B9D;fontColor=#1D3557;fontSize=13;fontStyle=1" vertex="1" parent="I6DsQjvCXqQjqbKMyJa3-15">
          <mxGeometry x="80" y="130" width="20" height="270" as="geometry" />
        </mxCell>
        <mxCell id="I6DsQjvCXqQjqbKMyJa3-26" value="doGetBean()" style="html=1;align=left;spacingLeft=2;endArrow=block;rounded=1;edgeStyle=orthogonalEdgeStyle;curved=0;rounded=0;sketch=1;hachureGap=4;jiggle=2;curveFitting=1;fontFamily=Architects Daughter;fontSource=https%3A%2F%2Ffonts.googleapis.com%2Fcss%3Ffamily%3DArchitects%2BDaughter;labelBackgroundColor=none;strokeColor=#457B9D;fontColor=default;fontSize=13;fontStyle=1" edge="1" target="I6DsQjvCXqQjqbKMyJa3-25" parent="I6DsQjvCXqQjqbKMyJa3-15">
          <mxGeometry relative="1" as="geometry">
            <mxPoint x="90" y="120" as="sourcePoint" />
            <Array as="points">
              <mxPoint x="124" y="150" />
            </Array>
          </mxGeometry>
        </mxCell>
        <mxCell id="I6DsQjvCXqQjqbKMyJa3-28" value="" style="html=1;points=[[0,0,0,0,5],[0,1,0,0,-5],[1,0,0,0,5],[1,1,0,0,-5]];perimeter=orthogonalPerimeter;outlineConnect=0;targetShapes=umlLifeline;portConstraint=eastwest;newEdgeStyle={&quot;curved&quot;:0,&quot;rounded&quot;:0};sketch=1;hachureGap=4;jiggle=2;curveFitting=1;fontFamily=Architects Daughter;fontSource=https%3A%2F%2Ffonts.googleapis.com%2Fcss%3Ffamily%3DArchitects%2BDaughter;rounded=1;labelBackgroundColor=none;fillColor=#A8DADC;strokeColor=#457B9D;fontColor=#1D3557;fontSize=13;fontStyle=1" vertex="1" parent="I6DsQjvCXqQjqbKMyJa3-15">
          <mxGeometry x="100" y="205" width="16" height="45" as="geometry" />
        </mxCell>
        <mxCell id="I6DsQjvCXqQjqbKMyJa3-29" value="transformedBeanName(name)" style="html=1;align=left;spacingLeft=2;endArrow=block;rounded=1;edgeStyle=orthogonalEdgeStyle;curved=0;rounded=0;sketch=1;hachureGap=4;jiggle=2;curveFitting=1;fontFamily=Architects Daughter;fontSource=https%3A%2F%2Ffonts.googleapis.com%2Fcss%3Ffamily%3DArchitects%2BDaughter;labelBackgroundColor=none;strokeColor=#457B9D;fontColor=default;fontSize=13;fontStyle=1" edge="1" target="I6DsQjvCXqQjqbKMyJa3-28" parent="I6DsQjvCXqQjqbKMyJa3-15">
          <mxGeometry relative="1" as="geometry">
            <mxPoint x="101" y="185" as="sourcePoint" />
            <Array as="points">
              <mxPoint x="131" y="185" />
              <mxPoint x="131" y="230" />
            </Array>
          </mxGeometry>
        </mxCell>
        <mxCell id="I6DsQjvCXqQjqbKMyJa3-30" value="" style="html=1;points=[[0,0,0,0,5],[0,1,0,0,-5],[1,0,0,0,5],[1,1,0,0,-5]];perimeter=orthogonalPerimeter;outlineConnect=0;targetShapes=umlLifeline;portConstraint=eastwest;newEdgeStyle={&quot;curved&quot;:0,&quot;rounded&quot;:0};sketch=1;hachureGap=4;jiggle=2;curveFitting=1;fontFamily=Architects Daughter;fontSource=https%3A%2F%2Ffonts.googleapis.com%2Fcss%3Ffamily%3DArchitects%2BDaughter;rounded=1;labelBackgroundColor=none;fillColor=#A8DADC;strokeColor=#457B9D;fontColor=#1D3557;fontSize=13;fontStyle=1" vertex="1" parent="I6DsQjvCXqQjqbKMyJa3-15">
          <mxGeometry x="100" y="280" width="16" height="40" as="geometry" />
        </mxCell>
        <mxCell id="I6DsQjvCXqQjqbKMyJa3-31" value="getSingleton(beanName)" style="html=1;align=left;spacingLeft=2;endArrow=block;rounded=1;edgeStyle=orthogonalEdgeStyle;curved=0;rounded=0;sketch=1;hachureGap=4;jiggle=2;curveFitting=1;fontFamily=Architects Daughter;fontSource=https%3A%2F%2Ffonts.googleapis.com%2Fcss%3Ffamily%3DArchitects%2BDaughter;labelBackgroundColor=none;strokeColor=#457B9D;fontColor=default;fontSize=13;fontStyle=1" edge="1" target="I6DsQjvCXqQjqbKMyJa3-30" parent="I6DsQjvCXqQjqbKMyJa3-15">
          <mxGeometry relative="1" as="geometry">
            <mxPoint x="100" y="260" as="sourcePoint" />
            <Array as="points">
              <mxPoint x="131" y="260" />
              <mxPoint x="131" y="300" />
            </Array>
          </mxGeometry>
        </mxCell>
        <mxCell id="I6DsQjvCXqQjqbKMyJa3-32" value="" style="html=1;points=[[0,0,0,0,5],[0,1,0,0,-5],[1,0,0,0,5],[1,1,0,0,-5]];perimeter=orthogonalPerimeter;outlineConnect=0;targetShapes=umlLifeline;portConstraint=eastwest;newEdgeStyle={&quot;curved&quot;:0,&quot;rounded&quot;:0};rounded=1;sketch=1;hachureGap=4;jiggle=2;curveFitting=1;fontFamily=Architects Daughter;fontSource=https%3A%2F%2Ffonts.googleapis.com%2Fcss%3Ffamily%3DArchitects%2BDaughter;labelBackgroundColor=none;fillColor=#A8DADC;strokeColor=#457B9D;fontColor=#1D3557;fontSize=13;fontStyle=1" vertex="1" parent="I6DsQjvCXqQjqbKMyJa3-15">
          <mxGeometry x="100" y="350" width="10" height="40" as="geometry" />
        </mxCell>
        <mxCell id="I6DsQjvCXqQjqbKMyJa3-33" value="createBean(beanName, mbd, args)" style="html=1;align=left;spacingLeft=2;endArrow=block;rounded=0;edgeStyle=orthogonalEdgeStyle;curved=0;rounded=0;sketch=1;hachureGap=4;jiggle=2;curveFitting=1;fontFamily=Architects Daughter;fontSource=https%3A%2F%2Ffonts.googleapis.com%2Fcss%3Ffamily%3DArchitects%2BDaughter;labelBackgroundColor=none;strokeColor=#457B9D;fontColor=default;fontSize=13;fontStyle=1" edge="1" target="I6DsQjvCXqQjqbKMyJa3-32" parent="I6DsQjvCXqQjqbKMyJa3-15">
          <mxGeometry relative="1" as="geometry">
            <mxPoint x="103" y="330" as="sourcePoint" />
            <Array as="points">
              <mxPoint x="133" y="360" />
            </Array>
          </mxGeometry>
        </mxCell>
        <mxCell id="I6DsQjvCXqQjqbKMyJa3-44" value="AbstractAutowireCapableBeanFactory" style="shape=umlLifeline;perimeter=lifelinePerimeter;whiteSpace=wrap;html=1;container=1;dropTarget=0;collapsible=0;recursiveResize=0;outlineConnect=0;portConstraint=eastwest;newEdgeStyle={&quot;curved&quot;:0,&quot;rounded&quot;:0};sketch=1;hachureGap=4;jiggle=2;curveFitting=1;fontFamily=Architects Daughter;fontSource=https%3A%2F%2Ffonts.googleapis.com%2Fcss%3Ffamily%3DArchitects%2BDaughter;fillColor=#A8DADC;strokeColor=#457B9D;rounded=1;labelBackgroundColor=none;fontColor=#1D3557;fontStyle=1;fontSize=13;" vertex="1" parent="1">
          <mxGeometry x="-31" y="1160" width="261" height="660" as="geometry" />
        </mxCell>
        <mxCell id="I6DsQjvCXqQjqbKMyJa3-46" value="" style="html=1;points=[[0,0,0,0,5],[0,1,0,0,-5],[1,0,0,0,5],[1,1,0,0,-5]];perimeter=orthogonalPerimeter;outlineConnect=0;targetShapes=umlLifeline;portConstraint=eastwest;newEdgeStyle={&quot;curved&quot;:0,&quot;rounded&quot;:0};sketch=1;hachureGap=4;jiggle=2;curveFitting=1;strokeColor=#457B9D;fontFamily=Architects Daughter;fontSource=https%3A%2F%2Ffonts.googleapis.com%2Fcss%3Ffamily%3DArchitects%2BDaughter;fontColor=#1D3557;fillColor=#A8DADC;fontSize=13;fontStyle=1" vertex="1" parent="I6DsQjvCXqQjqbKMyJa3-44">
          <mxGeometry x="121" y="380" width="19" height="260" as="geometry" />
        </mxCell>
        <mxCell id="I6DsQjvCXqQjqbKMyJa3-48" value="" style="html=1;points=[[0,0,0,0,5],[0,1,0,0,-5],[1,0,0,0,5],[1,1,0,0,-5]];perimeter=orthogonalPerimeter;outlineConnect=0;targetShapes=umlLifeline;portConstraint=eastwest;newEdgeStyle={&quot;curved&quot;:0,&quot;rounded&quot;:0};sketch=1;hachureGap=4;jiggle=2;curveFitting=1;strokeColor=#457B9D;fontFamily=Architects Daughter;fontSource=https%3A%2F%2Ffonts.googleapis.com%2Fcss%3Ffamily%3DArchitects%2BDaughter;fontColor=#1D3557;fillColor=#A8DADC;fontSize=13;fontStyle=1" vertex="1" parent="I6DsQjvCXqQjqbKMyJa3-44">
          <mxGeometry x="135" y="410" width="15" height="160" as="geometry" />
        </mxCell>
        <mxCell id="I6DsQjvCXqQjqbKMyJa3-49" value="doCreateBean(&lt;div style=&quot;font-size: 13px;&quot;&gt;beanName, mbdToUse, args)&lt;/div&gt;" style="html=1;align=left;spacingLeft=2;endArrow=block;rounded=0;edgeStyle=orthogonalEdgeStyle;curved=0;rounded=0;sketch=1;hachureGap=4;jiggle=2;curveFitting=1;strokeColor=#457B9D;fontFamily=Architects Daughter;fontSource=https%3A%2F%2Ffonts.googleapis.com%2Fcss%3Ffamily%3DArchitects%2BDaughter;fontColor=#1D3557;fillColor=#A8DADC;fontSize=13;fontStyle=1" edge="1" target="I6DsQjvCXqQjqbKMyJa3-48" parent="I6DsQjvCXqQjqbKMyJa3-44">
          <mxGeometry relative="1" as="geometry">
            <mxPoint x="140" y="390" as="sourcePoint" />
            <Array as="points">
              <mxPoint x="170" y="420" />
            </Array>
          </mxGeometry>
        </mxCell>
        <mxCell id="I6DsQjvCXqQjqbKMyJa3-50" value="" style="html=1;points=[[0,0,0,0,5],[0,1,0,0,-5],[1,0,0,0,5],[1,1,0,0,-5]];perimeter=orthogonalPerimeter;outlineConnect=0;targetShapes=umlLifeline;portConstraint=eastwest;newEdgeStyle={&quot;curved&quot;:0,&quot;rounded&quot;:0};sketch=1;hachureGap=4;jiggle=2;curveFitting=1;strokeColor=#457B9D;fontFamily=Architects Daughter;fontSource=https%3A%2F%2Ffonts.googleapis.com%2Fcss%3Ffamily%3DArchitects%2BDaughter;fontColor=#1D3557;fillColor=#A8DADC;fontSize=13;fontStyle=1" vertex="1" parent="I6DsQjvCXqQjqbKMyJa3-44">
          <mxGeometry x="145" y="465" width="15" height="95" as="geometry" />
        </mxCell>
        <mxCell id="I6DsQjvCXqQjqbKMyJa3-51" value="createBeanInstance(beanName, mbd, args)" style="html=1;align=left;spacingLeft=2;endArrow=block;rounded=0;edgeStyle=orthogonalEdgeStyle;curved=0;rounded=0;sketch=1;hachureGap=4;jiggle=2;curveFitting=1;strokeColor=#457B9D;fontFamily=Architects Daughter;fontSource=https%3A%2F%2Ffonts.googleapis.com%2Fcss%3Ffamily%3DArchitects%2BDaughter;fontColor=#1D3557;fillColor=#A8DADC;fontSize=13;fontStyle=1" edge="1" target="I6DsQjvCXqQjqbKMyJa3-50" parent="I6DsQjvCXqQjqbKMyJa3-44">
          <mxGeometry relative="1" as="geometry">
            <mxPoint x="150" y="445" as="sourcePoint" />
            <Array as="points">
              <mxPoint x="180" y="475" />
            </Array>
          </mxGeometry>
        </mxCell>
        <mxCell id="I6DsQjvCXqQjqbKMyJa3-57" value="" style="html=1;points=[[0,0,0,0,5],[0,1,0,0,-5],[1,0,0,0,5],[1,1,0,0,-5]];perimeter=orthogonalPerimeter;outlineConnect=0;targetShapes=umlLifeline;portConstraint=eastwest;newEdgeStyle={&quot;curved&quot;:0,&quot;rounded&quot;:0};sketch=1;hachureGap=4;jiggle=2;curveFitting=1;strokeColor=#457B9D;fontFamily=Architects Daughter;fontSource=https%3A%2F%2Ffonts.googleapis.com%2Fcss%3Ffamily%3DArchitects%2BDaughter;fontColor=#1D3557;fillColor=#A8DADC;" vertex="1" parent="I6DsQjvCXqQjqbKMyJa3-44">
          <mxGeometry x="155" y="510" width="15" height="40" as="geometry" />
        </mxCell>
        <mxCell id="I6DsQjvCXqQjqbKMyJa3-58" value="instantiateBean(beanName, mbd)" style="html=1;align=left;spacingLeft=2;endArrow=block;rounded=0;edgeStyle=orthogonalEdgeStyle;curved=0;rounded=0;sketch=1;hachureGap=4;jiggle=2;curveFitting=1;strokeColor=#457B9D;fontFamily=Architects Daughter;fontSource=https%3A%2F%2Ffonts.googleapis.com%2Fcss%3Ffamily%3DArchitects%2BDaughter;fontColor=#1D3557;fillColor=#A8DADC;fontStyle=1;fontSize=13;" edge="1" target="I6DsQjvCXqQjqbKMyJa3-57" parent="I6DsQjvCXqQjqbKMyJa3-44">
          <mxGeometry relative="1" as="geometry">
            <mxPoint x="160" y="490" as="sourcePoint" />
            <Array as="points">
              <mxPoint x="190" y="520" />
            </Array>
          </mxGeometry>
        </mxCell>
        <mxCell id="I6DsQjvCXqQjqbKMyJa3-47" value="createBean()" style="html=1;verticalAlign=bottom;startArrow=oval;endArrow=block;startSize=8;curved=0;rounded=0;entryX=0;entryY=0;entryDx=0;entryDy=5;sketch=1;hachureGap=4;jiggle=2;curveFitting=1;strokeColor=#457B9D;fontFamily=Architects Daughter;fontSource=https%3A%2F%2Ffonts.googleapis.com%2Fcss%3Ffamily%3DArchitects%2BDaughter;fontColor=#1D3557;fillColor=#A8DADC;exitX=1;exitY=1;exitDx=0;exitDy=-5;exitPerimeter=0;fontSize=13;fontStyle=1" edge="1" target="I6DsQjvCXqQjqbKMyJa3-46" parent="1" source="I6DsQjvCXqQjqbKMyJa3-32">
          <mxGeometry relative="1" as="geometry">
            <mxPoint x="10" y="1545" as="sourcePoint" />
          </mxGeometry>
        </mxCell>
        <mxCell id="I6DsQjvCXqQjqbKMyJa3-56" value="getBean()" style="html=1;verticalAlign=bottom;endArrow=block;curved=0;rounded=0;sketch=1;hachureGap=4;jiggle=2;curveFitting=1;strokeColor=#457B9D;fontFamily=Architects Daughter;fontSource=https%3A%2F%2Ffonts.googleapis.com%2Fcss%3Ffamily%3DArchitects%2BDaughter;fontColor=#1D3557;fillColor=#A8DADC;fontStyle=1;fontSize=13;" edge="1" parent="1">
          <mxGeometry width="80" relative="1" as="geometry">
            <mxPoint x="-450" y="1270" as="sourcePoint" />
            <mxPoint x="-220" y="1270" as="targetPoint" />
          </mxGeometry>
        </mxCell>
        <mxCell id="I6DsQjvCXqQjqbKMyJa3-59" value="SimpleInstantiationStrategy" style="shape=umlLifeline;perimeter=lifelinePerimeter;whiteSpace=wrap;html=1;container=1;dropTarget=0;collapsible=0;recursiveResize=0;outlineConnect=0;portConstraint=eastwest;newEdgeStyle={&quot;curved&quot;:0,&quot;rounded&quot;:0};sketch=1;hachureGap=4;jiggle=2;curveFitting=1;fontFamily=Architects Daughter;fontSource=https%3A%2F%2Ffonts.googleapis.com%2Fcss%3Ffamily%3DArchitects%2BDaughter;fillColor=#A8DADC;strokeColor=#457B9D;rounded=1;labelBackgroundColor=none;fontColor=#1D3557;fontSize=13;fontStyle=1" vertex="1" parent="1">
          <mxGeometry x="420" y="1160" width="190" height="720" as="geometry" />
        </mxCell>
        <mxCell id="I6DsQjvCXqQjqbKMyJa3-61" value="" style="html=1;points=[[0,0,0,0,5],[0,1,0,0,-5],[1,0,0,0,5],[1,1,0,0,-5]];perimeter=orthogonalPerimeter;outlineConnect=0;targetShapes=umlLifeline;portConstraint=eastwest;newEdgeStyle={&quot;curved&quot;:0,&quot;rounded&quot;:0};sketch=1;hachureGap=4;jiggle=2;curveFitting=1;strokeColor=#457B9D;fontFamily=Architects Daughter;fontSource=https%3A%2F%2Ffonts.googleapis.com%2Fcss%3Ffamily%3DArchitects%2BDaughter;fontColor=#1D3557;fillColor=#A8DADC;" vertex="1" parent="I6DsQjvCXqQjqbKMyJa3-59">
          <mxGeometry x="90" y="530" width="15" height="80" as="geometry" />
        </mxCell>
        <mxCell id="I6DsQjvCXqQjqbKMyJa3-62" value="instantiate(mbd, beanName, this)" style="html=1;verticalAlign=bottom;startArrow=oval;endArrow=block;startSize=8;curved=0;rounded=0;entryX=0;entryY=0;entryDx=0;entryDy=5;sketch=1;hachureGap=4;jiggle=2;curveFitting=1;strokeColor=#457B9D;fontFamily=Architects Daughter;fontSource=https%3A%2F%2Ffonts.googleapis.com%2Fcss%3Ffamily%3DArchitects%2BDaughter;fontColor=#1D3557;fillColor=#A8DADC;fontSize=13;fontStyle=1" edge="1" target="I6DsQjvCXqQjqbKMyJa3-61" parent="1" source="I6DsQjvCXqQjqbKMyJa3-57">
          <mxGeometry relative="1" as="geometry">
            <mxPoint x="440" y="1695" as="sourcePoint" />
          </mxGeometry>
        </mxCell>
        <mxCell id="I6DsQjvCXqQjqbKMyJa3-65" value="ctor.newInstance(argsWithDefaultValues)" style="text;html=1;align=center;verticalAlign=middle;resizable=0;points=[];autosize=1;strokeColor=none;fillColor=none;fontFamily=Architects Daughter;fontSource=https%3A%2F%2Ffonts.googleapis.com%2Fcss%3Ffamily%3DArchitects%2BDaughter;fontColor=#1D3557;fontSize=13;fontStyle=1" vertex="1" parent="1">
          <mxGeometry x="520" y="1698" width="270" height="30" as="geometry" />
        </mxCell>
      </root>
    </mxGraphModel>
  </diagram>
</mxfile>
